<svg width="47" height="53" viewBox="0 0 47 53" fill="none" xmlns="http://www.w3.org/2000/svg">
<path d="M23 18C26.315 18 29 15.315 29 12C29 8.685 26.315 6 23 6C19.685 6 17 8.685 17 12C17 15.315 19.685 18 23 18ZM23 21C18.995 21 11 23.01 11 27V28.5C11 29.325 11.675 30 12.5 30H33.5C34.325 30 35 29.325 35 28.5V27C35 23.01 27.005 21 23 21Z" fill="#606060"/>
<path d="M9.0625 52.0977H7.2168V50H2.57031V52.0918H0.666016L0.519531 48.418H1.12305C1.43945 48.207 1.69336 47.8457 1.88477 47.334C2.08008 46.8184 2.21875 46.0801 2.30078 45.1191L2.56445 41.4688H8.37109V48.418H9.2793L9.0625 52.0977ZM3.44922 48.418H6.32031V43.0566H4.50391L4.3457 45.1895C4.22852 46.5723 3.92969 47.6484 3.44922 48.418ZM12.0449 47.1055V50H9.98828V41.4688H13.3926C14.0449 41.4688 14.6211 41.5898 15.1211 41.832C15.625 42.0703 16.0137 42.4121 16.2871 42.8574C16.5645 43.2988 16.7031 43.8008 16.7031 44.3633C16.7031 45.1953 16.4043 45.8613 15.8066 46.3613C15.2129 46.8574 14.3965 47.1055 13.3574 47.1055H12.0449ZM12.0449 45.5176H13.3926C13.791 45.5176 14.0938 45.418 14.3008 45.2188C14.5117 45.0195 14.6172 44.7383 14.6172 44.375C14.6172 43.9766 14.5098 43.6582 14.2949 43.4199C14.0801 43.1816 13.7871 43.0605 13.416 43.0566H12.0449V45.5176ZM21.1152 45.1719V45.1777L22.5273 41.4688H24.6953L21.8242 48.2363C21.5156 48.9199 21.168 49.4023 20.7812 49.6836C20.3984 49.9609 19.9492 50.1074 19.4336 50.123H19.0176L18.7012 50.1113L18.666 48.5176C18.7129 48.5332 18.8496 48.541 19.0762 48.541C19.3887 48.541 19.623 48.4883 19.7793 48.3828C19.9395 48.2734 20.0684 48.0645 20.166 47.7559L20.2656 47.4746L17.1836 41.4688H19.3691L21.1152 45.1719ZM29.5527 43.8359C29.5527 43.5664 29.4473 43.3496 29.2363 43.1855C29.0293 43.0215 28.748 42.9395 28.3926 42.9395C28.0605 42.9395 27.793 43.0195 27.5898 43.1797C27.3906 43.3359 27.291 43.543 27.291 43.8008H25.2402C25.2402 43.332 25.373 42.9121 25.6387 42.541C25.9082 42.1699 26.2871 41.8809 26.7754 41.6738C27.2637 41.4629 27.8027 41.3574 28.3926 41.3574C29.4082 41.3574 30.1973 41.5703 30.7598 41.9961C31.3262 42.4219 31.6094 43.0176 31.6094 43.7832C31.6094 44.1738 31.4941 44.5312 31.2637 44.8555C31.0371 45.1758 30.7227 45.4297 30.3203 45.6172C30.7812 45.7812 31.1328 46.0312 31.375 46.3672C31.6211 46.6992 31.7441 47.1133 31.7441 47.6094C31.7441 48.375 31.4395 48.9844 30.8301 49.4375C30.2207 49.8867 29.4082 50.1113 28.3926 50.1113C27.4512 50.1113 26.6699 49.8906 26.0488 49.4492C25.4277 49.0039 25.1172 48.3984 25.1172 47.6328H27.1797C27.1797 47.8867 27.293 48.1016 27.5195 48.2773C27.7461 48.4492 28.0371 48.5352 28.3926 48.5352C28.7754 48.5352 29.0859 48.4453 29.3242 48.2656C29.5625 48.0859 29.6816 47.8516 29.6816 47.5625C29.6816 47.1406 29.5801 46.8438 29.377 46.6719C29.1738 46.4961 28.877 46.4082 28.4863 46.4082H27.3906V44.8848H28.5566C29.2207 44.8652 29.5527 44.5156 29.5527 43.8359ZM34.9316 44.4043H35.9922C36.668 44.4043 37.2656 44.5195 37.7852 44.75C38.3047 44.9805 38.7031 45.3066 38.9805 45.7285C39.2617 46.1465 39.4023 46.627 39.4023 47.1699C39.4023 48.0098 39.0898 48.6914 38.4648 49.2148C37.8438 49.7383 37.0078 50 35.957 50H32.8691V41.4688H34.9316V44.4043ZM34.9316 45.9863V48.418H35.9863C36.4043 48.418 36.7344 48.3008 36.9766 48.0664C37.2227 47.832 37.3457 47.5293 37.3457 47.1582C37.3457 46.8066 37.2246 46.5234 36.9824 46.3086C36.7402 46.0938 36.4043 45.9863 35.9746 45.9863H34.9316ZM44.0137 50V47.0059H42.8301L41.3887 50H39.1562L40.9082 46.3086C40.1465 45.8125 39.7656 45.084 39.7656 44.123C39.7656 43.2793 40.043 42.627 40.5977 42.166C41.1523 41.7012 41.9512 41.4688 42.9941 41.4688H46.0762V50H44.0137ZM41.8164 44.3047C41.8164 44.7383 41.9043 45.0527 42.0801 45.248C42.2559 45.4434 42.5508 45.541 42.9648 45.541H44.0137V43.0566H42.9766C42.5664 43.0566 42.2695 43.1641 42.0859 43.3789C41.9062 43.5898 41.8164 43.8984 41.8164 44.3047Z" fill="#606060"/>
</svg>
