<svg width="55" height="53" viewBox="0 0 55 53" fill="none" xmlns="http://www.w3.org/2000/svg">
<path d="M40 5H16C14.335 5 13 6.335 13 8V29C13 30.665 14.335 32 16 32H40C41.665 32 43 30.665 43 29V8C43 6.335 41.665 5 40 5ZM17.5 11H25V20H17.5V11ZM38.5 26H17.5V23H38.5V26ZM38.5 20H28V17H38.5V20ZM38.5 14H28V11H38.5V14Z" fill="#606060"/>
<path d="M6.83398 43.0566H3.125V50H1.06836V41.4688H6.83398V43.0566ZM14.3047 41.4688V50H12.248V43.0566H10.332L10.1914 45.9219C10.1328 46.9102 9.99609 47.6992 9.78125 48.2891C9.56641 48.8789 9.25977 49.3105 8.86133 49.584C8.4668 49.8535 7.92773 49.9922 7.24414 50H6.69336V48.418L6.98047 48.3887C7.39062 48.3301 7.6875 48.0801 7.87109 47.6387C8.05469 47.1934 8.17383 46.4453 8.22852 45.3945L8.375 41.4688H14.3047ZM20.5391 48.4062H17.7207L17.2285 50H15.0312L18.1602 41.4688H20.0938L23.2461 50H21.0371L20.5391 48.4062ZM18.2129 46.8184H20.0469L19.127 43.8594L18.2129 46.8184ZM23.873 50V41.4688H26.9375C28.0352 41.4688 28.8691 41.6699 29.4395 42.0723C30.0137 42.4746 30.3008 43.0586 30.3008 43.8242C30.3008 44.2656 30.1992 44.6426 29.9961 44.9551C29.793 45.2676 29.4941 45.498 29.0996 45.6465C29.5449 45.7637 29.8867 45.9824 30.125 46.3027C30.3633 46.623 30.4824 47.0137 30.4824 47.4746C30.4824 48.3105 30.2168 48.9395 29.6855 49.3613C29.1582 49.7793 28.375 49.9922 27.3359 50H23.873ZM25.9297 46.373V48.418H27.2773C27.6484 48.418 27.9336 48.334 28.1328 48.166C28.332 47.9941 28.4316 47.7539 28.4316 47.4453C28.4316 46.7344 28.0781 46.377 27.3711 46.373H25.9297ZM25.9297 45.0254H27.002C27.4512 45.0215 27.7715 44.9395 27.9629 44.7793C28.1543 44.6191 28.25 44.3828 28.25 44.0703C28.25 43.7109 28.1465 43.4531 27.9395 43.2969C27.7324 43.1367 27.3984 43.0566 26.9375 43.0566H25.9297V45.0254ZM38.75 50H36.7051V46.4375H33.6758V50H31.6191V41.4688H33.6758V44.8555H36.7051V41.4688H38.75V50ZM45.0078 48.4062H42.1895L41.6973 50H39.5L42.6289 41.4688H44.5625L47.7148 50H45.5059L45.0078 48.4062ZM42.6816 46.8184H44.5156L43.5957 43.8594L42.6816 46.8184ZM52.0156 50V47.0059H50.832L49.3906 50H47.1582L48.9102 46.3086C48.1484 45.8125 47.7676 45.084 47.7676 44.123C47.7676 43.2793 48.0449 42.627 48.5996 42.166C49.1543 41.7012 49.9531 41.4688 50.9961 41.4688H54.0781V50H52.0156ZM49.8184 44.3047C49.8184 44.7383 49.9062 45.0527 50.082 45.248C50.2578 45.4434 50.5527 45.541 50.9668 45.541H52.0156V43.0566H50.9785C50.5684 43.0566 50.2715 43.1641 50.0879 43.3789C49.9082 43.5898 49.8184 43.8984 49.8184 44.3047Z" fill="#606060"/>
</svg>
