<svg width="43" height="53" viewBox="0 0 43 53" fill="none" xmlns="http://www.w3.org/2000/svg">
<path d="M14.955 24L10.5 28.5C10.005 28.95 9.345 29.25 8.625 29.25C7.92881 29.25 7.26113 28.9734 6.76884 28.4812C6.27656 27.9889 6 27.3212 6 26.625V26.25L7.5 15.18C7.65121 13.4934 8.42751 11.9244 9.67644 10.7809C10.9254 9.63743 12.5567 9.00222 14.25 9H27.75C31.29 9 34.185 11.715 34.5 15.18L36 26.25V26.625C36 27.3212 35.7234 27.9889 35.2312 28.4812C34.7389 28.9734 34.0712 29.25 33.375 29.25C32.655 29.25 31.995 28.95 31.5 28.5L27.045 24H14.955ZM13.5 12V15H10.5V16.5H13.5V19.5H15V16.5H18V15H15V12H13.5ZM27.75 12C27.4516 12 27.1655 12.1185 26.9545 12.3295C26.7435 12.5405 26.625 12.8266 26.625 13.125C26.625 13.4234 26.7435 13.7095 26.9545 13.9205C27.1655 14.1315 27.4516 14.25 27.75 14.25C28.0484 14.25 28.3345 14.1315 28.5455 13.9205C28.7565 13.7095 28.875 13.4234 28.875 13.125C28.875 12.8266 28.7565 12.5405 28.5455 12.3295C28.3345 12.1185 28.0484 12 27.75 12ZM25.125 14.625C24.8266 14.625 24.5405 14.7435 24.3295 14.9545C24.1185 15.1655 24 15.4516 24 15.75C24 16.0484 24.1185 16.3345 24.3295 16.5455C24.5405 16.7565 24.8266 16.875 25.125 16.875C25.4234 16.875 25.7095 16.7565 25.9205 16.5455C26.1315 16.3345 26.25 16.0484 26.25 15.75C26.25 15.4516 26.1315 15.1655 25.9205 14.9545C25.7095 14.7435 25.4234 14.625 25.125 14.625ZM30.375 14.625C30.0766 14.625 29.7905 14.7435 29.5795 14.9545C29.3685 15.1655 29.25 15.4516 29.25 15.75C29.25 16.0484 29.3685 16.3345 29.5795 16.5455C29.7905 16.7565 30.0766 16.875 30.375 16.875C30.6734 16.875 30.9595 16.7565 31.1705 16.5455C31.3815 16.3345 31.5 16.0484 31.5 15.75C31.5 15.4516 31.3815 15.1655 31.1705 14.9545C30.9595 14.7435 30.6734 14.625 30.375 14.625ZM27.75 17.25C27.4516 17.25 27.1655 17.3685 26.9545 17.5795C26.7435 17.7905 26.625 18.0766 26.625 18.375C26.625 18.6734 26.7435 18.9595 26.9545 19.1705C27.1655 19.3815 27.4516 19.5 27.75 19.5C28.0484 19.5 28.3345 19.3815 28.5455 19.1705C28.7565 18.9595 28.875 18.6734 28.875 18.375C28.875 18.0766 28.7565 17.7905 28.5455 17.5795C28.3345 17.3685 28.0484 17.25 27.75 17.25Z" fill="#606060"/>
<path d="M3.65234 41.4688L5.55664 47.4043L7.45508 41.4688H10.1621V50H8.09961V48.0078L8.29883 43.9297L6.23633 50H4.87695L2.80859 43.9238L3.00781 48.0078V50H0.951172V41.4688H3.65234ZM16.4258 48.4062H13.6074L13.1152 50H10.918L14.0469 41.4688H15.9805L19.1328 50H16.9238L16.4258 48.4062ZM14.0996 46.8184H15.9336L15.0137 43.8594L14.0996 46.8184ZM25.7539 43.0566H23.1934V50H21.1367V43.0566H18.623V41.4688H25.7539V43.0566ZM33.7344 41.4688V50H31.6836V46.8477L31.0801 46.9238L30.3242 46.9707C29.1758 46.9707 28.2969 46.7227 27.6875 46.2266C27.0781 45.7266 26.7695 45.0195 26.7617 44.1055V41.4688H28.8184V44.0762C28.8184 44.541 28.9297 44.877 29.1523 45.084C29.3789 45.2871 29.7695 45.3887 30.3242 45.3887L30.5 45.3828C30.9805 45.3594 31.375 45.3223 31.6836 45.2715V41.4688H33.7344ZM40.0215 41.4688H42.0781V50H40.0215V44.6211L36.957 50H34.9004V41.4688H36.957V46.8535L40.0215 41.4688Z" fill="#606060"/>
</svg>
