<svg width="63" height="53" viewBox="0 0 63 53" fill="none" xmlns="http://www.w3.org/2000/svg">
<path fill-rule="evenodd" clip-rule="evenodd" d="M38.0039 19.6951C40.0589 21.0901 41.4989 22.9801 41.4989 25.5001V30.0001H45.9989C46.8239 30.0001 47.4989 29.3251 47.4989 28.5001V25.5001C47.4989 22.2301 42.1439 20.2951 38.0039 19.6951Z" fill="#606060"/>
<path d="M26.5 18C29.8137 18 32.5 15.3137 32.5 12C32.5 8.68629 29.8137 6 26.5 6C23.1863 6 20.5 8.68629 20.5 12C20.5 15.3137 23.1863 18 26.5 18Z" fill="#606060"/>
<path fill-rule="evenodd" clip-rule="evenodd" d="M35.5 18C38.815 18 41.5 15.315 41.5 12C41.5 8.685 38.815 6 35.5 6C34.795 6 34.135 6.15 33.505 6.36C34.7958 7.95633 35.5 9.9471 35.5 12C35.5 14.0529 34.7958 16.0437 33.505 17.64C34.135 17.85 34.795 18 35.5 18ZM26.5 19.5C22.495 19.5 14.5 21.51 14.5 25.5V28.5C14.5 29.325 15.175 30 16 30H37C37.825 30 38.5 29.325 38.5 28.5V25.5C38.5 21.51 30.505 19.5 26.5 19.5Z" fill="#606060"/>
<path d="M3.85547 46.625H2.88281V50H0.826172V41.4688H2.88281V44.7676H3.67383L5.31445 41.4688H7.80469L5.46094 45.4062L8.09766 50H5.66602L3.85547 46.625ZM15.6445 45.9102C15.6445 46.7422 15.4902 47.4785 15.1816 48.1191C14.873 48.7598 14.4336 49.2539 13.8633 49.6016C13.2969 49.9453 12.6504 50.1172 11.9238 50.1172C11.1973 50.1172 10.5527 49.9512 9.99023 49.6191C9.42773 49.2832 8.98828 48.8047 8.67188 48.1836C8.35938 47.5625 8.19531 46.8496 8.17969 46.0449V45.5645C8.17969 44.7285 8.33203 43.9922 8.63672 43.3555C8.94531 42.7148 9.38477 42.2207 9.95508 41.873C10.5293 41.5254 11.1816 41.3516 11.9121 41.3516C12.6348 41.3516 13.2793 41.5234 13.8457 41.8672C14.4121 42.2109 14.8516 42.7012 15.1641 43.3379C15.4805 43.9707 15.6406 44.6973 15.6445 45.5176V45.9102ZM13.5527 45.5527C13.5527 44.7051 13.4102 44.0625 13.125 43.625C12.8438 43.1836 12.4395 42.9629 11.9121 42.9629C10.8809 42.9629 10.3359 43.7363 10.2773 45.2832L10.2715 45.9102C10.2715 46.7461 10.4102 47.3887 10.6875 47.8379C10.9648 48.2871 11.377 48.5117 11.9238 48.5117C12.4434 48.5117 12.8438 48.291 13.125 47.8496C13.4062 47.4082 13.5488 46.7734 13.5527 45.9453V45.5527ZM19.4062 41.4688L21.3105 47.4043L23.209 41.4688H25.916V50H23.8535V48.0078L24.0527 43.9297L21.9902 50H20.6309L18.5625 43.9238L18.7617 48.0078V50H16.7051V41.4688H19.4062ZM32.1797 48.4062H29.3613L28.8691 50H26.6719L29.8008 41.4688H31.7344L34.8867 50H32.6777L32.1797 48.4062ZM29.8535 46.8184H31.6875L30.7676 43.8594L29.8535 46.8184ZM42.6445 50H40.5996V46.4375H37.5703V50H35.5137V41.4688H37.5703V44.8555H40.5996V41.4688H42.6445V50ZM52.0605 52.0977H50.2148V50H45.5684V52.0918H43.6641L43.5176 48.418H44.1211C44.4375 48.207 44.6914 47.8457 44.8828 47.334C45.0781 46.8184 45.2168 46.0801 45.2988 45.1191L45.5625 41.4688H51.3691V48.418H52.2773L52.0605 52.0977ZM46.4473 48.418H49.3184V43.0566H47.502L47.3438 45.1895C47.2266 46.5723 46.9277 47.6484 46.4473 48.418ZM55.043 44.4043H56.1035C56.7793 44.4043 57.377 44.5195 57.8965 44.75C58.416 44.9805 58.8145 45.3066 59.0918 45.7285C59.373 46.1465 59.5137 46.627 59.5137 47.1699C59.5137 48.0098 59.2012 48.6914 58.5762 49.2148C57.9551 49.7383 57.1191 50 56.0684 50H52.9805V41.4688H55.043V44.4043ZM62.1855 50H60.1348V41.4688H62.1855V50ZM55.043 45.9863V48.418H56.0977C56.5156 48.418 56.8457 48.3008 57.0879 48.0664C57.334 47.832 57.457 47.5293 57.457 47.1582C57.457 46.8066 57.3359 46.5234 57.0938 46.3086C56.8516 46.0938 56.5156 45.9863 56.0859 45.9863H55.043Z" fill="#606060"/>
</svg>
