<svg width="59" height="53" viewBox="0 0 59 53" fill="none" xmlns="http://www.w3.org/2000/svg">
<path d="M40.5 7.5H37.5V6C37.5 5.175 36.825 4.5 36 4.5H24C23.175 4.5 22.5 5.175 22.5 6V7.5H19.5C17.85 7.5 16.5 8.85 16.5 10.5V12C16.5 15.825 19.38 18.945 23.085 19.41C23.5594 20.534 24.3003 21.5257 25.2437 22.2993C26.1872 23.0728 27.3048 23.6051 28.5 23.85V28.5H24C23.175 28.5 22.5 29.175 22.5 30C22.5 30.825 23.175 31.5 24 31.5H36C36.825 31.5 37.5 30.825 37.5 30C37.5 29.175 36.825 28.5 36 28.5H31.5V23.85C32.6952 23.6051 33.8128 23.0728 34.7563 22.2993C35.6997 21.5257 36.4406 20.534 36.915 19.41C40.62 18.945 43.5 15.825 43.5 12V10.5C43.5 8.85 42.15 7.5 40.5 7.5ZM19.5 12V10.5H22.5V16.23C20.76 15.6 19.5 13.95 19.5 12ZM40.5 12C40.5 13.95 39.24 15.6 37.5 16.23V10.5H40.5V12Z" fill="#606060"/>
<path d="M7.83203 43.0566H5.27148V50H3.21484V43.0566H0.701172V41.4688H7.83203V43.0566ZM12.0156 45.1719V45.1777L13.4277 41.4688H15.5957L12.7246 48.2363C12.416 48.9199 12.0684 49.4023 11.6816 49.6836C11.2988 49.9609 10.8496 50.1074 10.334 50.123H9.91797L9.60156 50.1113L9.56641 48.5176C9.61328 48.5332 9.75 48.541 9.97656 48.541C10.2891 48.541 10.5234 48.4883 10.6797 48.3828C10.8398 48.2734 10.9688 48.0645 11.0664 47.7559L11.166 47.4746L8.08398 41.4688H10.2695L12.0156 45.1719ZM18.3555 47.1055V50H16.2988V41.4688H19.7031C20.3555 41.4688 20.9316 41.5898 21.4316 41.832C21.9355 42.0703 22.3242 42.4121 22.5977 42.8574C22.875 43.2988 23.0137 43.8008 23.0137 44.3633C23.0137 45.1953 22.7148 45.8613 22.1172 46.3613C21.5234 46.8574 20.707 47.1055 19.668 47.1055H18.3555ZM18.3555 45.5176H19.7031C20.1016 45.5176 20.4043 45.418 20.6113 45.2188C20.8223 45.0195 20.9277 44.7383 20.9277 44.375C20.9277 43.9766 20.8203 43.6582 20.6055 43.4199C20.3906 43.1816 20.0977 43.0605 19.7266 43.0566H18.3555V45.5176ZM31.2461 50H29.2012V46.4375H26.1719V50H24.1152V41.4688H26.1719V44.8555H29.2012V41.4688H31.2461V50ZM37.5566 41.4688H39.6133V50H37.5566V44.6211L34.4922 50H32.4355V41.4688H34.4922V46.8535L37.5566 41.4688ZM42.9297 47.1055V50H40.873V41.4688H44.2773C44.9297 41.4688 45.5059 41.5898 46.0059 41.832C46.5098 42.0703 46.8984 42.4121 47.1719 42.8574C47.4492 43.2988 47.5879 43.8008 47.5879 44.3633C47.5879 45.1953 47.2891 45.8613 46.6914 46.3613C46.0977 46.8574 45.2812 47.1055 44.2422 47.1055H42.9297ZM42.9297 45.5176H44.2773C44.6758 45.5176 44.9785 45.418 45.1855 45.2188C45.3965 45.0195 45.502 44.7383 45.502 44.375C45.502 43.9766 45.3945 43.6582 45.1797 43.4199C44.9648 43.1816 44.6719 43.0605 44.3008 43.0566H42.9297V45.5176ZM50.7461 44.4043H51.8066C52.4824 44.4043 53.0801 44.5195 53.5996 44.75C54.1191 44.9805 54.5176 45.3066 54.7949 45.7285C55.0762 46.1465 55.2168 46.627 55.2168 47.1699C55.2168 48.0098 54.9043 48.6914 54.2793 49.2148C53.6582 49.7383 52.8223 50 51.7715 50H48.6836V41.4688H50.7461V44.4043ZM57.8887 50H55.8379V41.4688H57.8887V50ZM50.7461 45.9863V48.418H51.8008C52.2188 48.418 52.5488 48.3008 52.791 48.0664C53.0371 47.832 53.1602 47.5293 53.1602 47.1582C53.1602 46.8066 53.0391 46.5234 52.7969 46.3086C52.5547 46.0938 52.2188 45.9863 51.7891 45.9863H50.7461Z" fill="#606060"/>
</svg>
