<svg width="443" height="340" viewBox="0 0 443 340" fill="none" xmlns="http://www.w3.org/2000/svg">
<g filter="url(#filter0_d_297_4309)">
<path d="M221.663 36.6289L358.602 136.12L306.296 297.101H137.031L84.7249 136.12L221.663 36.6289Z" fill="#F8F8F8" fill-opacity="0.1"/>
<path d="M189.451 172.286L221.804 123.992L281.333 162.897L288.85 273.768L172.999 249.378L189.451 172.286Z" fill="url(#paint0_radial_297_4309)" fill-opacity="0.5" stroke="#FAC704"/>
<path d="M221.664 183.455V36.6274" stroke="#BFBFBF"/>
<path d="M221.664 183.455L358.545 136.091" stroke="#BFBFBF"/>
<path d="M221.664 183.455L305.971 296.654" stroke="#BFBFBF"/>
<path d="M221.663 183.455L84.7822 136.091" stroke="#BFBFBF"/>
<path d="M221.663 183.455L137.356 296.654" stroke="#BFBFBF"/>
<mask id="mask0_297_4309" style="mask-type:alpha" maskUnits="userSpaceOnUse" x="172" y="123" width="118" height="152">
<path d="M189.451 172.286L221.804 123.992L281.333 162.897L288.85 273.768L172.999 249.378L189.451 172.286Z" fill="url(#paint1_radial_297_4309)" fill-opacity="0.3" stroke="#FAC704"/>
</mask>
<g mask="url(#mask0_297_4309)">
<path d="M221.665 183.457V36.6294" stroke="#FAC704"/>
<path d="M221.665 183.456L358.546 136.093" stroke="#FAC704"/>
<path d="M221.665 183.457L305.972 296.656" stroke="#FAC704"/>
<path d="M221.665 183.456L84.7837 136.093" stroke="#FAC704"/>
<path d="M221.665 183.457L137.357 296.656" stroke="#FAC704"/>
</g>
<circle cx="221.664" cy="123.777" r="2.84182" fill="#FAC704"/>
<circle cx="281.341" cy="162.616" r="2.84182" fill="#FAC704"/>
<circle cx="288.92" cy="273.446" r="2.84182" fill="#FAC704"/>
<circle cx="172.405" cy="249.765" r="2.84182" fill="#FAC704"/>
<circle cx="137.356" cy="297.128" r="1.89455" fill="#BFBFBF"/>
<circle cx="305.97" cy="297.128" r="1.89455" fill="#BFBFBF"/>
<circle cx="358.071" cy="136.092" r="1.89455" fill="#BFBFBF"/>
<circle cx="221.663" cy="36.6284" r="1.89455" fill="#BFBFBF"/>
<circle cx="85.2554" cy="136.092" r="1.89455" fill="#BFBFBF"/>
<circle cx="189.456" cy="172.088" r="2.84182" fill="#FAC704"/>
<path d="M319.015 315.76H316.958V307.468H312.972V315.76H310.921V305.807H319.015V315.76ZM323.452 312.964L324.819 308.364H326.938L323.964 316.909L323.8 317.298C323.358 318.264 322.629 318.748 321.613 318.748C321.326 318.748 321.034 318.704 320.738 318.618V317.121L321.039 317.127C321.412 317.127 321.69 317.07 321.873 316.957C322.059 316.843 322.205 316.653 322.31 316.389L322.542 315.781L319.952 308.364H322.078L323.452 312.964ZM329.693 308.364V314.167H331.723V308.364H333.706V314.167H335.736V308.364H337.711V315.76H327.717V308.364H329.693ZM343.754 308.364H345.73V315.76H343.754V311.194L341.28 315.76H339.297V308.364H341.28V312.923L343.754 308.364ZM353.653 315.76H351.67V312.917H349.216V315.76H347.241V308.364H349.216V311.331H351.67V308.364H353.653V315.76ZM360.222 309.963H357.16V315.76H355.184V308.364H360.222V309.963Z" fill="#F8F8F8"/>
<path d="M72.3164 315.76H70.2588V307.468H66.2734V315.76H64.2227V305.807H72.3164V315.76ZM73.6836 311.994C73.6836 311.26 73.8249 310.606 74.1074 310.032C74.39 309.458 74.7956 309.013 75.3242 308.699C75.8574 308.384 76.4749 308.227 77.1768 308.227C78.1748 308.227 78.9883 308.532 79.6172 309.143C80.2507 309.754 80.6038 310.583 80.6768 311.631L80.6904 312.137C80.6904 313.272 80.3737 314.183 79.7402 314.872C79.1068 315.555 78.2568 315.897 77.1904 315.897C76.124 315.897 75.2718 315.555 74.6338 314.872C74.0003 314.188 73.6836 313.258 73.6836 312.083V311.994ZM75.6592 312.137C75.6592 312.839 75.7913 313.377 76.0557 313.75C76.32 314.12 76.6982 314.304 77.1904 314.304C77.6689 314.304 78.0426 314.122 78.3115 313.757C78.5804 313.388 78.7148 312.8 78.7148 311.994C78.7148 311.306 78.5804 310.772 78.3115 310.394C78.0426 310.016 77.6644 309.827 77.1768 309.827C76.6937 309.827 76.32 310.016 76.0557 310.394C75.7913 310.768 75.6592 311.349 75.6592 312.137ZM81.5176 314.167C81.9642 313.694 82.2673 313.224 82.4268 312.759C82.5863 312.294 82.6751 311.636 82.6934 310.784L82.748 308.364H88.1895V314.167H89.2559V317.982H87.2803V315.76H82.8984V317.982H80.8818V314.167H81.5176ZM83.8486 314.167H86.2207V309.998H84.6826L84.6689 310.886C84.6279 312.244 84.3545 313.338 83.8486 314.167ZM90.5 314.167C90.9466 313.694 91.2497 313.224 91.4092 312.759C91.5687 312.294 91.6576 311.636 91.6758 310.784L91.7305 308.364H97.1719V314.167H98.2383V317.982H96.2627V315.76H91.8809V317.982H89.8643V314.167H90.5ZM92.8311 314.167H95.2031V309.998H93.665L93.6514 310.886C93.6104 312.244 93.3369 313.338 92.8311 314.167ZM102.647 315.897C101.563 315.897 100.679 315.564 99.9951 314.899C99.3161 314.234 98.9766 313.347 98.9766 312.24V312.048C98.9766 311.306 99.1201 310.642 99.4072 310.059C99.6943 309.471 100.1 309.02 100.624 308.706C101.153 308.387 101.754 308.227 102.429 308.227C103.44 308.227 104.236 308.546 104.814 309.184C105.398 309.822 105.689 310.727 105.689 311.898V312.705H100.979C101.043 313.188 101.235 313.575 101.554 313.867C101.877 314.158 102.285 314.304 102.777 314.304C103.538 314.304 104.133 314.028 104.562 313.477L105.532 314.564C105.236 314.983 104.835 315.311 104.329 315.548C103.823 315.781 103.263 315.897 102.647 315.897ZM102.422 309.827C102.03 309.827 101.711 309.959 101.465 310.223C101.223 310.487 101.068 310.866 101 311.358H103.748V311.201C103.739 310.763 103.62 310.426 103.393 310.189C103.165 309.947 102.841 309.827 102.422 309.827ZM113.476 312.13C113.476 313.27 113.216 314.183 112.696 314.872C112.181 315.555 111.484 315.897 110.604 315.897C109.857 315.897 109.253 315.637 108.793 315.118V318.604H106.817V308.364H108.649L108.718 309.088C109.196 308.514 109.821 308.227 110.591 308.227C111.502 308.227 112.211 308.564 112.717 309.239C113.223 309.913 113.476 310.843 113.476 312.028V312.13ZM111.5 311.987C111.5 311.299 111.377 310.768 111.131 310.394C110.889 310.02 110.536 309.833 110.071 309.833C109.451 309.833 109.025 310.07 108.793 310.544V313.573C109.035 314.06 109.465 314.304 110.085 314.304C111.028 314.304 111.5 313.532 111.5 311.987ZM121.713 313.019H120.817V315.76H118.842V313.019H117.96L116.49 315.76H114.104L116.436 311.891L114.132 308.364H116.579L118.117 311.125H118.842V308.364H120.817V311.125H121.556L123.101 308.364H125.548L123.258 311.843L125.609 315.76H123.183L121.713 313.019ZM129.458 313.033H128.665V315.76H126.689V308.364H128.665V311.146H129.369L130.982 308.364H133.478L131.058 311.884L133.703 315.76H131.071L129.458 313.033ZM138.734 315.76C138.643 315.583 138.577 315.361 138.536 315.097C138.058 315.63 137.436 315.897 136.67 315.897C135.945 315.897 135.344 315.687 134.865 315.268C134.391 314.849 134.154 314.32 134.154 313.682C134.154 312.898 134.444 312.297 135.022 311.877C135.606 311.458 136.447 311.246 137.545 311.242H138.454V310.818C138.454 310.476 138.365 310.203 138.188 309.998C138.014 309.792 137.739 309.69 137.36 309.69C137.028 309.69 136.766 309.77 136.574 309.929C136.387 310.089 136.294 310.307 136.294 310.585H134.318C134.318 310.157 134.451 309.761 134.715 309.396C134.979 309.031 135.353 308.747 135.836 308.542C136.319 308.332 136.861 308.227 137.463 308.227C138.374 308.227 139.097 308.457 139.63 308.917C140.168 309.373 140.437 310.016 140.437 310.845V314.051C140.441 314.753 140.539 315.284 140.73 315.644V315.76H138.734ZM137.101 314.386C137.392 314.386 137.661 314.322 137.907 314.195C138.153 314.063 138.336 313.887 138.454 313.668V312.397H137.716C136.727 312.397 136.201 312.739 136.137 313.422L136.13 313.539C136.13 313.785 136.216 313.987 136.39 314.147C136.563 314.306 136.8 314.386 137.101 314.386Z" fill="#F8F8F8"/>
<path d="M22.127 125.767H22.25C23.0293 125.767 23.7334 125.94 24.3623 126.287C24.9958 126.628 25.488 127.116 25.8389 127.75C26.1898 128.383 26.3652 129.103 26.3652 129.91C26.3652 131.104 25.9824 132.079 25.2168 132.835C24.4557 133.592 23.4258 133.97 22.127 133.97V135.242H20.1514V133.97H20.0215C19.2331 133.97 18.5221 133.802 17.8887 133.464C17.2552 133.123 16.763 132.644 16.4121 132.029C16.0658 131.414 15.8926 130.712 15.8926 129.923C15.8926 129.126 16.0658 128.413 16.4121 127.784C16.7585 127.155 17.2438 126.665 17.8682 126.314C18.4925 125.958 19.1898 125.776 19.96 125.767H20.1514V124.468H22.127V125.767ZM20.0215 127.469C19.3424 127.469 18.807 127.683 18.415 128.112C18.0277 128.54 17.834 129.144 17.834 129.923C17.834 130.653 18.0277 131.227 18.415 131.646C18.8024 132.061 19.347 132.268 20.0488 132.268H20.1514V127.469H20.0215ZM22.127 127.469V132.268H22.2637C22.9336 132.268 23.46 132.058 23.8428 131.639C24.2301 131.215 24.4238 130.639 24.4238 129.91C24.4238 129.149 24.2347 128.552 23.8564 128.119C23.4782 127.686 22.9359 127.469 22.2295 127.469H22.127ZM31.8682 134.832C31.777 134.654 31.7109 134.433 31.6699 134.168C31.1914 134.702 30.5693 134.968 29.8037 134.968C29.0791 134.968 28.4775 134.759 27.999 134.339C27.5251 133.92 27.2881 133.391 27.2881 132.753C27.2881 131.97 27.5775 131.368 28.1562 130.949C28.7396 130.529 29.5804 130.318 30.6787 130.313H31.5879V129.889C31.5879 129.547 31.499 129.274 31.3213 129.069C31.1481 128.864 30.8724 128.761 30.4941 128.761C30.1615 128.761 29.8994 128.841 29.708 129C29.5212 129.16 29.4277 129.379 29.4277 129.657H27.4521C27.4521 129.228 27.5843 128.832 27.8486 128.467C28.113 128.103 28.4867 127.818 28.9697 127.613C29.4528 127.403 29.9951 127.298 30.5967 127.298C31.5081 127.298 32.2305 127.528 32.7637 127.989C33.3014 128.444 33.5703 129.087 33.5703 129.917V133.123C33.5749 133.824 33.6729 134.355 33.8643 134.715V134.832H31.8682ZM30.2344 133.458C30.526 133.458 30.7949 133.394 31.041 133.266C31.2871 133.134 31.4694 132.958 31.5879 132.74V131.468H30.8496C29.8607 131.468 29.3343 131.81 29.2705 132.494L29.2637 132.61C29.2637 132.856 29.3503 133.059 29.5234 133.218C29.6966 133.378 29.9336 133.458 30.2344 133.458ZM41.7461 131.202C41.7461 132.341 41.4863 133.255 40.9668 133.943C40.4518 134.626 39.7546 134.968 38.875 134.968C38.1276 134.968 37.5238 134.708 37.0635 134.189V137.675H35.0879V127.435H36.9199L36.9883 128.16C37.4668 127.585 38.0911 127.298 38.8613 127.298C39.7728 127.298 40.4814 127.636 40.9873 128.31C41.4932 128.985 41.7461 129.914 41.7461 131.099V131.202ZM39.7705 131.058C39.7705 130.37 39.6475 129.839 39.4014 129.465C39.1598 129.092 38.8066 128.905 38.3418 128.905C37.722 128.905 37.2959 129.142 37.0635 129.616V132.644C37.305 133.132 37.7357 133.375 38.3555 133.375C39.2988 133.375 39.7705 132.603 39.7705 131.058ZM47.4814 132.5L49.416 127.435H51.8906V134.832H49.915V130.292L48.1445 134.832H46.8184L45.082 130.368V134.832H43.1064V127.435H45.5605L47.4814 132.5ZM58.0703 127.435H60.0459V134.832H58.0703V130.265L55.5957 134.832H53.6133V127.435H55.5957V131.995L58.0703 127.435ZM67.9688 134.832H65.9863V131.988H63.5322V134.832H61.5566V127.435H63.5322V130.402H65.9863V127.435H67.9688V134.832ZM74.5381 129.035H71.4756V134.832H69.5V127.435H74.5381V129.035Z" fill="#F8F8F8"/>
<path d="M374.288 125.767H374.411C375.19 125.767 375.895 125.94 376.523 126.287C377.157 126.628 377.649 127.116 378 127.75C378.351 128.383 378.526 129.103 378.526 129.91C378.526 131.104 378.144 132.079 377.378 132.835C376.617 133.592 375.587 133.97 374.288 133.97V135.242H372.312V133.97H372.183C371.394 133.97 370.683 133.802 370.05 133.464C369.416 133.123 368.924 132.644 368.573 132.029C368.227 131.414 368.054 130.712 368.054 129.923C368.054 129.126 368.227 128.413 368.573 127.784C368.92 127.155 369.405 126.665 370.029 126.314C370.654 125.958 371.351 125.776 372.121 125.767H372.312V124.468H374.288V125.767ZM372.183 127.469C371.504 127.469 370.968 127.683 370.576 128.112C370.189 128.54 369.995 129.144 369.995 129.923C369.995 130.653 370.189 131.227 370.576 131.646C370.964 132.061 371.508 132.268 372.21 132.268H372.312V127.469H372.183ZM374.288 127.469V132.268H374.425C375.095 132.268 375.621 132.058 376.004 131.639C376.391 131.215 376.585 130.639 376.585 129.91C376.585 129.149 376.396 128.552 376.018 128.119C375.639 127.686 375.097 127.469 374.391 127.469H374.288ZM384.029 134.832C383.938 134.654 383.872 134.433 383.831 134.168C383.353 134.702 382.73 134.968 381.965 134.968C381.24 134.968 380.639 134.759 380.16 134.339C379.686 133.92 379.449 133.391 379.449 132.753C379.449 131.97 379.739 131.368 380.317 130.949C380.901 130.529 381.742 130.318 382.84 130.313H383.749V129.889C383.749 129.547 383.66 129.274 383.482 129.069C383.309 128.864 383.034 128.761 382.655 128.761C382.323 128.761 382.061 128.841 381.869 129C381.682 129.16 381.589 129.379 381.589 129.657H379.613C379.613 129.228 379.745 128.832 380.01 128.467C380.274 128.103 380.648 127.818 381.131 127.613C381.614 127.403 382.156 127.298 382.758 127.298C383.669 127.298 384.392 127.528 384.925 127.989C385.463 128.444 385.731 129.087 385.731 129.917V133.123C385.736 133.824 385.834 134.355 386.025 134.715V134.832H384.029ZM382.396 133.458C382.687 133.458 382.956 133.394 383.202 133.266C383.448 133.134 383.631 132.958 383.749 132.74V131.468H383.011C382.022 131.468 381.495 131.81 381.432 132.494L381.425 132.61C381.425 132.856 381.511 133.059 381.685 133.218C381.858 133.378 382.095 133.458 382.396 133.458ZM391.706 127.435H393.682V134.832H391.706V130.265L389.231 134.832H387.249V127.435H389.231V131.995L391.706 127.435ZM392.868 124.434C392.868 125.04 392.649 125.53 392.212 125.904C391.779 126.278 391.209 126.464 390.503 126.464C389.797 126.464 389.225 126.28 388.787 125.911C388.354 125.542 388.138 125.049 388.138 124.434H389.539C389.539 124.721 389.623 124.944 389.792 125.104C389.965 125.259 390.202 125.336 390.503 125.336C390.799 125.336 391.032 125.259 391.2 125.104C391.369 124.944 391.453 124.721 391.453 124.434H392.868ZM401.331 129.021H398.959V134.832H396.977V129.021H394.646V127.435H401.331V129.021ZM406.786 127.435H408.762V134.832H406.786V130.265L404.312 134.832H402.329V127.435H404.312V131.995L406.786 127.435ZM416.685 134.832H414.702V131.988H412.248V134.832H410.272V127.435H412.248V130.402H414.702V127.435H416.685V134.832ZM423.254 129.035H420.191V134.832H418.216V127.435H423.254V129.035Z" fill="#F8F8F8"/>
<path d="M198.595 15.708H194.131V24H192.081V14.0469H198.595V15.708ZM203.025 16.6035H205V24H203.025V19.4336L200.55 24H198.568V16.6035H200.55V21.1631L203.025 16.6035ZM210.182 17.0137C211.13 17.0137 211.887 17.3281 212.452 17.957C213.017 18.5859 213.299 19.4404 213.299 20.5205V20.6162C213.299 21.6826 212.985 22.5371 212.356 23.1797C211.727 23.8223 210.882 24.1436 209.82 24.1436C208.753 24.1436 207.903 23.7972 207.27 23.1045C206.641 22.4072 206.327 21.4616 206.327 20.2676V19.9395C206.336 18.276 206.616 16.9749 207.167 16.0361C207.723 15.0928 208.557 14.498 209.669 14.252C210.253 14.1243 210.629 13.999 210.797 13.876C210.966 13.7484 211.05 13.5729 211.05 13.3496H212.65C212.65 14.0651 212.456 14.6029 212.069 14.9629C211.686 15.3229 211.002 15.6009 210.018 15.7969C209.435 15.9154 208.974 16.1455 208.637 16.4873C208.3 16.8291 208.072 17.3099 207.954 17.9297C208.583 17.319 209.325 17.0137 210.182 17.0137ZM209.806 18.6133C209.337 18.6133 208.968 18.7705 208.699 19.085C208.434 19.3994 208.302 19.9098 208.302 20.6162C208.302 21.2451 208.432 21.7259 208.692 22.0586C208.952 22.3867 209.328 22.5508 209.82 22.5508C210.298 22.5508 210.667 22.389 210.927 22.0654C211.187 21.7419 211.319 21.2656 211.324 20.6367V20.4727C211.324 19.8665 211.189 19.4062 210.92 19.0918C210.656 18.7728 210.285 18.6133 209.806 18.6133ZM217.257 21.2725H216.464V24H214.489V16.6035H216.464V19.3857H217.168L218.782 16.6035H221.277L218.857 20.124L221.502 24H218.871L217.257 21.2725ZM221.543 20.2334C221.543 19.4997 221.685 18.8457 221.967 18.2715C222.25 17.6973 222.655 17.2529 223.184 16.9385C223.717 16.624 224.335 16.4668 225.037 16.4668C226.035 16.4668 226.848 16.7721 227.477 17.3828C228.111 17.9935 228.464 18.8229 228.537 19.8711L228.55 20.377C228.55 21.5117 228.234 22.4232 227.6 23.1113C226.967 23.7949 226.117 24.1367 225.05 24.1367C223.984 24.1367 223.132 23.7949 222.494 23.1113C221.86 22.4277 221.543 21.498 221.543 20.3223V20.2334ZM223.519 20.377C223.519 21.0788 223.651 21.6165 223.916 21.9902C224.18 22.3594 224.558 22.5439 225.05 22.5439C225.529 22.5439 225.903 22.3617 226.171 21.9971C226.44 21.6279 226.575 21.04 226.575 20.2334C226.575 19.5452 226.44 19.012 226.171 18.6338C225.903 18.2555 225.524 18.0664 225.037 18.0664C224.554 18.0664 224.18 18.2555 223.916 18.6338C223.651 19.0075 223.519 19.5885 223.519 20.377ZM232.843 22.5439C233.208 22.5439 233.504 22.4437 233.732 22.2432C233.96 22.0426 234.078 21.776 234.087 21.4434H235.94C235.935 21.9447 235.799 22.4049 235.53 22.8242C235.261 23.2389 234.892 23.5625 234.422 23.7949C233.958 24.0228 233.443 24.1367 232.877 24.1367C231.82 24.1367 230.986 23.8018 230.375 23.1318C229.765 22.4574 229.459 21.5277 229.459 20.3428V20.2129C229.459 19.0736 229.763 18.1644 230.369 17.4854C230.975 16.8063 231.806 16.4668 232.864 16.4668C233.789 16.4668 234.529 16.7311 235.085 17.2598C235.646 17.7839 235.931 18.4834 235.94 19.3584H234.087C234.078 18.9756 233.96 18.6657 233.732 18.4287C233.504 18.1872 233.203 18.0664 232.83 18.0664C232.369 18.0664 232.021 18.235 231.784 18.5723C231.551 18.9049 231.435 19.4473 231.435 20.1992V20.4043C231.435 21.1654 231.551 21.7122 231.784 22.0449C232.016 22.3776 232.369 22.5439 232.843 22.5439ZM243.207 18.1895H240.834V24H238.852V18.1895H236.521V16.6035H243.207V18.1895ZM246.317 18.7705H247.732C248.37 18.7705 248.931 18.8776 249.414 19.0918C249.897 19.306 250.266 19.6136 250.521 20.0146C250.781 20.4111 250.911 20.8737 250.911 21.4023C250.911 22.1816 250.621 22.8105 250.042 23.2891C249.468 23.763 248.684 24 247.691 24H244.334V16.6035H246.317V18.7705ZM246.317 20.3564V22.4209H247.718C248.11 22.4209 248.411 22.3298 248.621 22.1475C248.83 21.9652 248.935 21.7168 248.935 21.4023C248.935 21.0833 248.833 20.8304 248.627 20.6436C248.422 20.4521 248.119 20.3564 247.718 20.3564H246.317Z" fill="#F8F8F8"/>
</g>
<defs>
<filter id="filter0_d_297_4309" x="0.892578" y="0.349609" width="441.361" height="339.398" filterUnits="userSpaceOnUse" color-interpolation-filters="sRGB">
<feFlood flood-opacity="0" result="BackgroundImageFix"/>
<feColorMatrix in="SourceAlpha" type="matrix" values="0 0 0 0 0 0 0 0 0 0 0 0 0 0 0 0 0 0 127 0" result="hardAlpha"/>
<feOffset dx="2" dy="4"/>
<feGaussianBlur stdDeviation="8.5"/>
<feColorMatrix type="matrix" values="0 0 0 0 0 0 0 0 0 0 0 0 0 0 0 0 0 0 0.37 0"/>
<feBlend mode="normal" in2="BackgroundImageFix" result="effect1_dropShadow_297_4309"/>
<feBlend mode="normal" in="SourceGraphic" in2="effect1_dropShadow_297_4309" result="shape"/>
</filter>
<radialGradient id="paint0_radial_297_4309" cx="0" cy="0" r="1" gradientUnits="userSpaceOnUse" gradientTransform="translate(221.663 183.455) rotate(90) scale(71.0455 55.0101)">
<stop stop-color="#FA7A04"/>
<stop offset="1" stop-color="#FAC704"/>
</radialGradient>
<radialGradient id="paint1_radial_297_4309" cx="0" cy="0" r="1" gradientUnits="userSpaceOnUse" gradientTransform="translate(221.663 183.455) rotate(84.2008) scale(91.406 70.7752)">
<stop stop-color="#FAC704"/>
<stop offset="1" stop-color="#FAC704" stop-opacity="0.86"/>
</radialGradient>
</defs>
</svg>
